:SAMPLES-PER-SECOND 30
:FULLY-SPECIFIED
:DEGREES
17
root  3.77409 38.9682 2.08742 -43.2559 -77.3501 32.5307
RightUpLeg  -2.79223 2.4853 -16.5911
RightLeg  34.4264 -11.9607 -8.91791
RightFoot  -4.49321 -0.977171 15.7174
RightToes  7.56698e-010 0 -3.6325e-017
Spine  8.558 -0.248135 -5.19842
Spine1  12.3939 1.02622 -9.4817
HEad  22.9431 -16.2176 -0.694316
LeftShoulder1  2.29424 -5.21525 -19.8533
LeftArm  9.7237 -14.9748 -64.2191
LeftForeArm  21.6834 -61.6179 -19.1197
LeftHand  -1.39143 -2.75043 19.9279
RightShoulder  1.66999 3.44538 17.4755
RightArm  -13.6192 -12.8648 54.6374
RightForeArm  38.9321 -4.11775 13.3225
RightHand  -1.04725 2.82385 -14.9587
LeftUpLeg  1.40634 2.32886 -3.94385
LeftLeg  20.4433 3.23561 2.9461
LeftFoot  -9.34209 0.162809 -6.12523
LeftToes  -3.13779e-010 -2.47553e-011 -5.36621e-011
18
root  3.78924 38.9862 2.21583 -46.2196 -78.036 34.9731
RightUpLeg  -1.9886 4.05509 -16.3346
RightLeg  33.5399 -12.394 -8.93166
RightFoot  -4.9781 -0.833956 14.3187
RightToes  7.56698e-010 0 -3.6325e-017
Spine  8.40365 0.028273 -4.16378
Spine1  13.3936 1.75798 -10.4197
HEad  22.7678 -15.2232 -1.22465
LeftShoulder1  2.32355 -5.17501 -20.3464
LeftArm  9.51155 -15.5224 -63.6307
LeftForeArm  22.0502 -60.9117 -18.4711
LeftHand  -1.38206 -2.60644 20.1395
RightShoulder  1.68454 3.46461 17.6305
RightArm  -14.7314 -12.1836 54.7353
RightForeArm  39.4178 -6.10911 12.8657
RightHand  -1.06762 2.62507 -15.6029
LeftUpLeg  2.23209 2.572 -4.13111
LeftLeg  20.152 3.91552 3.1669
LeftFoot  -9.31327 0.161534 -5.9747
LeftToes  -3.13779e-010 -2.47553e-011 -5.36621e-011
19
root  3.75587 39.1182 2.25859 -46.9124 -78.7014 36.1436
RightUpLeg  -1.21275 4.41092 -15.7937
RightLeg  31.0556 -13.5827 -8.89285
RightFoot  -5.53185 -0.729313 13.5742
RightToes  7.56698e-010 0 -3.6325e-017
Spine  7.87969 0.159002 -3.7545
Spine1  12.9591 1.90152 -10.0404
HEad  22.3779 -14.1496 -1.57325
LeftShoulder1  2.29916 -5.09062 -20.3234
LeftArm  9.47268 -14.2993 -63.2707
LeftForeArm  20.4456 -57.6643 -16.1505
LeftHand  -1.41909 -2.55437 20.7919
RightShoulder  1.68811 3.46931 17.6685
RightArm  -16.0408 -11.0156 54.891
RightForeArm  40.9565 -7.76148 12.2708
RightHand  -1.09811 2.46957 -16.3419
LeftUpLeg  2.5711 3.53207 -3.7316
LeftLeg  18.6239 3.66444 2.94604
LeftFoot  -8.70188 0.188126 -5.89993
LeftToes  -3.13779e-010 -2.47553e-011 -5.36621e-011
20
root  3.6953 39.3168 2.22141 -45.4227 -79.56 35.96
RightUpLeg  -0.70932 4.14686 -14.8879
RightLeg  27.4316 -15.1722 -8.59165
RightFoot  -5.80501 -0.688541 13.3624
RightToes  7.56698e-010 0 -3.6325e-017
Spine  6.94026 0.166578 -3.59572
Spine1  11.6346 1.65526 -8.92352
HEad  21.4934 -12.9664 -1.70176
LeftShoulder1  2.26381 -4.99756 -20.1921
LeftArm  10.1806 -12.3687 -62.6902
LeftForeArm  17.5727 -51.8257 -12.9614
LeftHand  -1.48674 -2.48093 21.9478
RightShoulder  1.6761 3.42347 17.6545
RightArm  -17.329 -9.94252 55.0757
RightForeArm  41.538 -7.5218 11.7999
RightHand  -1.11515 2.4355 -16.6584
LeftUpLeg  2.34701 4.86136 -2.71741
LeftLeg  16.4141 2.90378 2.3867
LeftFoot  -7.74333 0.232243 -5.91264
LeftToes  -3.13779e-010 -2.47553e-011 -5.36621e-011
21
root  3.63876 39.5333 2.13153 -41.9294 -80.6686 34.1923
RightUpLeg  -0.439331 3.8731 -13.6095
RightLeg  23.125 -16.5451 -7.79045
RightFoot  -5.57249 -0.691839 12.929
RightToes  7.56698e-010 0 -3.6325e-017
Spine  5.84925 0.0533694 -3.21581
Spine1  9.97072 1.24969 -7.63644
HEad  19.8523 -11.3416 -1.62264
LeftShoulder1  2.27668 -5.00789 -20.319
LeftArm  12.4112 -10.6001 -61.5033
LeftForeArm  14.0389 -44.1265 -9.90623
LeftHand  -1.55722 -2.34915 23.328
RightShoulder  1.64846 3.29111 17.7262
RightArm  -17.914 -9.16624 55.2513
RightForeArm  38.9826 -7.60554 11.4611
RightHand  -1.13817 2.63416 -16.5906
LeftUpLeg  1.71015 5.95063 -1.31362
LeftLeg  14.0763 2.32757 1.78544
LeftFoot  -6.63497 0.286298 -5.99564
LeftToes  -3.13779e-010 -2.47553e-011 -5.36621e-011
22
root  3.60364 39.7393 2.0096 -36.9915 -81.8612 30.9347
RightUpLeg  -0.24318 3.24381 -12.3096
RightLeg  18.6699 -16.7174 -6.3853
RightFoot  -4.84451 -0.725096 12.154
RightToes  7.56698e-010 0 -3.6325e-017
Spine  5.00242 -0.214774 -2.66559
Spine1  8.25141 0.697622 -6.28499
HEad  17.6215 -8.40946 -1.34465
LeftShoulder1  2.36544 -5.2146 -20.7291
LeftArm  16.3844 -8.87798 -59.6739
LeftForeArm  9.96314 -36.0744 -7.57117
LeftHand  -1.61643 -2.21411 24.5963
RightShoulder  1.62127 3.14432 17.8649
RightArm  -17.4684 -8.30053 55.5195
RightForeArm  34.8401 -7.00435 11.5486
RightHand  -1.19333 3.13666 -16.3908
LeftUpLeg  1.04863 6.72368 0.202282
LeftLeg  11.8058 2.09262 1.28985
LeftFoot  -5.46364 0.347073 -6.11937
LeftToes  -3.13779e-010 -2.47553e-011 -5.36621e-011
23
root  3.58842 39.9205 1.85865 -31.6891 -83.1269 26.8821
RightUpLeg  0.048041 1.00339 -11.1913
RightLeg  14.5479 -14.4589 -4.75104
RightFoot  -3.81223 -0.78938 11.5594
RightToes  7.56698e-010 0 -3.6325e-017
Spine  4.60158 -0.582358 -2.22166
Spine1  6.79049 0.00627785 -4.68808
HEad  15.0919 -3.24791 -0.82137
LeftShoulder1  2.50784 -5.57434 -21.2576
LeftArm  22.3459 -6.83816 -57.5909
LeftForeArm  4.29125 -28.7816 -5.821
LeftHand  -1.61939 -1.92589 25.5739
RightShoulder  1.61023 3.07121 17.9779
RightArm  -16.1528 -6.8583 55.9539
RightForeArm  31.72 -3.14775 12.3301
RightHand  -1.28829 3.84799 -16.3492
LeftUpLeg  0.757627 7.42285 1.7419
LeftLeg  9.72259 2.08764 0.916074
LeftFoot  -4.34216 0.411668 -6.3017
LeftToes  -3.13779e-010 -2.47553e-011 -5.36621e-011
24
root  3.58675 40.064 1.67291 -26.6714 -84.6535 22.5655
RightUpLeg  0.484978 -3.12104 -10.0484
RightLeg  11.0373 -9.77373 -3.57485
RightFoot  -2.67969 -0.877392 11.3078
RightToes  7.56698e-010 0 -3.6325e-017
Spine  4.50013 -0.868249 -1.99584
Spine1  5.95839 -0.664574 -2.76337
HEad  12.4652 4.31117 -0.160042
LeftShoulder1  2.63454 -5.90043 -21.6748
LeftArm  26.9127 -4.64802 -55.7437
LeftForeArm  -0.201452 -21.9141 -5.98496
LeftHand  -1.50891 -1.34583 25.8513
RightShoulder  1.60922 3.0482 18.0549
RightArm  -12.8852 -4.77811 56.5732
RightForeArm  27.977 2.07715 13.1055
RightHand  -1.42951 4.59159 -16.7899
LeftUpLeg  0.848295 8.07379 3.27411
LeftLeg  8.17142 2.42961 0.81068
LeftFoot  -3.48279 0.476226 -6.62493
LeftToes  -3.13779e-010 -2.47553e-011 -5.36621e-011
25
root  3.59747 40.1634 1.45064 -21.5995 -86.4789 17.7938
RightUpLeg  0.956829 -5.44558 -8.73987
RightLeg  8.36694 -6.53205 -2.80689
RightFoot  -1.60867 -0.942027 10.9076
RightToes  7.56698e-010 0 -3.6325e-017
Spine  4.43338 -0.949737 -1.91761
Spine1  5.82992 -1.1594 -0.687641
HEad  10.0455 13.4413 0.358133
LeftShoulder1  2.68761 -6.06565 -21.7502
LeftArm  17.6467 -2.75276 -53.9901
LeftForeArm  9.13451 -13.4162 -11.5064
LeftHand  -1.32816 -0.706 25.1545
RightShoulder  1.60547 3.0143 18.1316
RightArm  -3.32081 -2.45402 57.6243
RightForeArm  18.1285 9.72088 12.1762
RightHand  -1.59624 5.30628 -17.4929
LeftUpLeg  1.03604 8.50158 4.68434
LeftLeg  7.42862 3.31876 1.13248
LeftFoot  -3.00017 0.538992 -7.14039
LeftToes  -3.13779e-010 -2.47553e-011 -5.36621e-011
26
root  3.61798 40.2216 1.1982 -3.52979 -88.3544 -0.235016
RightUpLeg  1.357 -5.94657 -7.2625
RightLeg  6.48742 -4.89568 -2.45583
RightFoot  -0.76312 -0.945467 10.1316
RightToes  7.56698e-010 0 -3.6325e-017
Spine  4.33816 -0.88122 -1.81585
Spine1  6.14672 -1.45991 1.18122
HEad  8.27681 22.7783 0.678079
LeftShoulder1  2.67716 -6.12235 -21.4584
LeftArm  3.81436 -0.639327 -52.6295
LeftForeArm  22.2144 -4.13055 -15.0204
LeftHand  -1.17276 -0.274301 23.9418
RightShoulder  1.59665 2.96233 18.1989
RightArm  9.65179 -0.383651 59.0635
RightForeArm  4.15834 18.5711 7.9444
RightHand  -1.69637 5.93867 -17.5633
LeftUpLeg  1.18995 8.72032 5.92271
LeftLeg  7.41621 4.57564 1.75585
LeftFoot  -2.80872 0.598514 -7.79085
LeftToes  -3.13779e-010 -2.47553e-011 -5.36621e-011
27
root  3.63997 40.2418 0.930068 62.5445 -89.3544 -66.4994
RightUpLeg  1.64379 -5.82743 -5.88707
RightLeg  5.53441 -3.81708 -2.28597
RightFoot  -0.325537 -0.900153 9.28976
RightToes  7.56698e-010 0 -3.6325e-017
Spine  4.30762 -0.774667 -1.4683
Spine1  6.65866 -1.60465 2.51577
HEad  7.51427 31.0176 1.12555
LeftShoulder1  2.64071 -6.12439 -21.0482
LeftArm  -3.05038 1.96791 -51.8208
LeftForeArm  28.3289 1.87933 -15.028
LeftHand  -1.06536 -0.0625165 22.6225
RightShoulder  1.57717 2.87882 18.2192
RightArm  12.9891 1.38953 60.1801
RightForeArm  -0.605315 25.5491 5.09543
RightHand  -1.66108 6.33825 -16.6429
LeftUpLeg  1.34558 8.79991 7.03888
LeftLeg  7.95833 5.84925 2.44988
LeftFoot  -2.81136 0.650571 -8.48843
LeftToes  -3.13779e-010 -2.47553e-011 -5.36621e-011
28
root  3.66128 40.2237 0.667527 133.702 -88.2795 -137.996
RightUpLeg  1.77312 -5.67026 -4.75004
RightLeg  5.48841 -2.94815 -2.06356
RightFoot  -0.322101 -0.842491 8.69451
RightToes  7.56698e-010 0 -3.6325e-017
Spine  4.33912 -0.673788 -0.68549
Spine1  7.30807 -1.61872 3.27465
HEad  7.71482 37.2338 1.92452
LeftShoulder1  2.57891 -5.9868 -20.7772
LeftArm  -5.75021 4.63529 -51.1721
LeftForeArm  30.1551 4.68618 -14.5637
LeftHand  -0.986873 -0.0476201 21.0496
RightShoulder  1.53227 2.71383 18.1483
RightArm  8.16408 2.92919 60.8648
RightForeArm  3.47072 31.6701 6.77627
RightHand  -1.57215 6.55803 -15.5057
LeftUpLeg  1.33812 8.30682 8.03082
LeftLeg  9.1196 7.31039 3.20402
LeftFoot  -3.00291 0.689887 -9.20443
LeftToes  -3.13779e-010 -2.47553e-011 -5.36621e-011
29
root  3.69408 40.1583 0.425306 130.7 -87.1911 -135.353
RightUpLeg  1.66432 -5.53453 -3.66791
RightLeg  6.19618 -2.4867 -1.83079
RightFoot  -0.66727 -0.778235 8.26611
RightToes  7.56698e-010 0 -3.6325e-017
Spine  4.37509 -0.572768 0.590103
Spine1  8.10383 -1.54111 3.72466
HEad  8.30112 41.0198 2.72252
LeftShoulder1  2.48802 -5.68103 -20.6861
LeftArm  -6.56277 6.99746 -50.6386
LeftForeArm  29.9761 5.19655 -14.4037
LeftHand  -0.931724 -0.170038 19.4734
RightShoulder  1.46321 2.48029 17.9416
RightArm  5.53765 3.99045 61.4482
RightForeArm  5.31971 38.0501 8.45713
RightHand  -1.52838 6.81214 -14.7886
LeftUpLeg  0.749732 6.39542 8.97966
LeftLeg  11.3484 9.58382 4.0464
LeftFoot  -3.42041 0.710643 -9.95489
LeftToes  -3.13779e-010 -2.47553e-011 -5.36621e-011
